{
	"asset":{
		"version":"2.0",
		"generator":"Created using the official Cinema 4D glTF Exporter 1.000x290161"
	},
	"scenes":[{
		"nodes":[0]
	}],
	"nodes":[{
		"name":"mesh1",
		"translation":[0,
		71.328,
		0],
		"rotation":[0,
		0,
		0,
		-1],
		"scale":[1,
		1,
		1],
		"mesh":0
	}],
	"meshes":[{
		"primitives":[{
			"attributes":{
				"POSITION":1,
				"NORMAL":2,
				"TEXCOORD_0":3
			},
			"indices":0,
			"material":0
		}]
	}],
	"accessors":[{
		"bufferView":0,
		"type":"SCALAR",
		"componentType":5123,
		"count":71295,
		"byteOffset":0,
		"min":[0],
		"max":[12872]
	},
	{
		"bufferView":1,
		"type":"VEC3",
		"componentType":5126,
		"count":12873,
		"byteOffset":0,
		"min":[-146.728,
		-88.372,
		-84.497],
		"max":[146.728,
		88.372,
		84.497]
	},
	{
		"bufferView":1,
		"type":"VEC3",
		"componentType":5126,
		"count":12873,
		"byteOffset":12,
		"min":[-1,
		-1,
		-1],
		"max":[1,
		1,
		1]
	},
	{
		"bufferView":1,
		"type":"VEC2",
		"componentType":5126,
		"count":12873,
		"byteOffset":24,
		"min":[0,
		0.141],
		"max":[1,
		1]
	}],
	"bufferViews":[{
		"buffer":0,
		"byteOffset":0,
		"byteLength":142590,
		"target":34963
	},
	{
		"buffer":0,
		"byteOffset":142592,
		"byteLength":411936,
		"target":34962,
		"byteStride":32
	}],
	"buffers":[{
		"uri":"data:application/octet-stream;base64,",
		"byteLength":554528
	}],
	"images":[{
		"uri":"data:image/jpeg;base64,"
	}],
	"samplers":[{
		"magFilter":9729,
		"minFilter":9729,
		"wrapS":10497,
		"wrapT":10497
	}],
	"textures":[{
		"sampler":0,
		"source":0
	}],
	"materials":[{
		"pbrMetallicRoughness":{
			"baseColorTexture":{
				"index":0
			},
			"baseColorFactor":[1,
			1,
			1,
			1],
			"metallicFactor":1,
			"roughnessFactor":1
		},
		"emissiveFactor":[0,
		0,
		0],
		"alphaMode":"OPAQUE",
		"doubleSided":false,
		"name":"m0"
	}]
}